<svg xmlns="http://www.w3.org/2000/svg" xmlns:xlink="http://www.w3.org/1999/xlink" width="400" height="400" viewBox="0, 0, 400,400" fill="#FFF"><g id="svgg"><path id="path0" d="M193.750 114.063 L 193.750 184.375 121.875 184.375 L 50.000 184.375 50.000 192.129 L 50.000 199.883 121.094 200.723 L 192.188 201.563 193.027 272.656 C 193.837 341.159,194.093 343.750,200.059 343.750 C 206.051 343.750,206.250 341.440,206.250 271.875 L 206.250 200.000 278.125 200.000 L 350.000 200.000 350.000 192.188 L 350.000 184.375 278.125 184.375 L 206.250 184.375 206.250 114.063 C 206.250 45.833,206.065 43.750,200.000 43.750 C 193.935 43.750,193.750 45.833,193.750 114.063 " stroke="none"  fill-rule="evenodd"></path></g></svg>