<svg id="svg" xmlns="http://www.w3.org/2000/svg" xmlns:xlink="http://www.w3.org/1999/xlink" width="80" height="60" viewBox="0, 0, 400,226.5625" version="1.1"><g id="svgg"><path id="path0" d="M142.727 72.724 C 141.257 76.554,140.253 76.490,203.803 76.599 C 266.594 76.706,266.614 76.705,265.086 72.724 C 263.683 69.067,144.130 69.067,142.727 72.724 M142.885 109.511 C 140.442 113.464,147.512 113.996,203.798 114.100 C 261.001 114.205,267.526 113.715,264.928 109.511 C 263.454 107.126,144.359 107.126,142.885 109.511 M142.485 148.047 C 143.300 152.277,264.513 152.277,265.328 148.047 C 265.822 145.480,262.063 145.313,203.906 145.313 C 145.749 145.313,141.991 145.480,142.485 148.047 " stroke="none" fill="#fff" fill-rule="evenodd"></path></g></svg>