<svg id="svg" xmlns="http://www.w3.org/2000/svg" xmlns:xlink="http://www.w3.org/1999/xlink" width="400" height="342.1875" viewBox="0, 0, 400,342.1875"><g id="svgg"><path id="path0" d="M120.961 159.949 C 104.240 167.522,104.262 190.290,120.998 198.391 C 129.164 202.344,131.399 202.347,139.102 198.417 C 163.670 185.884,146.076 148.574,120.961 159.949 M180.820 160.094 C 163.066 169.354,164.942 192.393,184.066 199.966 C 191.022 202.721,200.102 199.732,206.331 192.637 C 220.898 176.047,200.390 149.886,180.820 160.094 M242.220 159.474 C 224.614 166.874,224.130 190.074,241.406 198.437 C 263.646 209.203,282.333 180.786,264.346 163.553 C 259.426 158.839,248.514 156.828,242.220 159.474 M138.352 171.023 C 148.206 180.877,136.747 196.889,124.507 190.370 C 112.780 184.124,116.565 167.188,129.688 167.188 C 132.732 167.188,135.935 168.605,138.352 171.023 M198.377 170.607 C 203.149 175.730,202.688 184.826,197.446 188.949 C 189.153 195.472,178.125 190.190,178.125 179.695 C 178.125 168.884,191.274 162.984,198.377 170.607 M258.665 171.023 C 268.519 180.877,257.060 196.889,244.819 190.370 C 236.715 186.054,235.225 177.912,241.332 171.322 C 246.335 165.923,253.443 165.801,258.665 171.023 " stroke="none" fill="#000000" fill-rule="evenodd"></path></g></svg>