<svg id="svg" xmlns="http://www.w3.org/2000/svg" xmlns:xlink="http://www.w3.org/1999/xlink" width="48" height="48" viewBox="0, 0, 400,276" version="1.1"><g id="svgg"><path id="path0" d="M190.000 81.834 C 190.000 91.446,185.064 100.000,179.517 100.000 C 178.566 100.000,174.477 102.250,170.430 105.000 C 161.399 111.136,159.224 111.189,148.544 105.533 C 138.722 100.330,137.848 100.826,129.300 116.455 L 124.129 125.911 129.158 129.455 C 143.634 139.658,142.986 138.428,143.186 156.095 L 143.373 172.544 134.750 177.772 C 124.636 183.903,124.425 185.026,130.962 197.925 C 137.527 210.881,138.711 211.337,149.924 205.234 L 159.505 200.020 173.784 208.287 C 188.369 216.731,189.395 218.190,190.460 232.000 L 191.000 239.000 205.000 239.000 L 219.000 239.000 219.603 227.398 C 220.055 218.687,221.052 215.476,223.603 214.515 C 225.471 213.811,232.171 210.216,238.490 206.527 L 249.980 199.820 259.029 205.123 C 269.429 211.218,271.244 210.513,277.869 197.802 C 283.733 186.553,283.198 182.507,275.356 178.767 C 262.751 172.756,260.298 141.052,271.970 135.016 C 284.222 128.680,284.665 127.018,277.606 113.869 C 270.675 100.957,268.197 99.909,259.000 106.000 C 250.797 111.433,248.495 111.118,233.396 102.500 L 220.255 95.000 219.627 84.000 L 219.000 73.000 204.500 72.412 L 190.000 71.825 190.000 81.834 M210.913 84.500 C 211.458 86.975,212.150 91.700,212.452 95.000 C 212.914 100.054,214.682 101.834,223.672 106.289 C 229.542 109.198,236.524 113.473,239.187 115.789 C 245.239 121.051,249.908 121.100,258.567 115.990 C 265.281 112.029,265.405 112.027,268.862 115.847 C 273.515 120.989,271.570 126.245,263.382 130.655 L 256.740 134.231 256.944 155.616 L 257.147 177.000 264.573 181.835 C 279.127 191.310,271.880 201.438,255.903 193.954 L 245.955 189.295 240.477 194.539 C 237.465 197.423,229.876 202.048,223.613 204.816 C 212.298 209.818,212.221 209.910,211.613 219.220 C 210.463 236.797,197.543 236.867,196.391 219.302 C 195.793 210.190,195.574 209.915,184.847 204.841 C 178.833 201.996,171.116 197.315,167.697 194.439 L 161.482 189.209 153.845 193.604 C 144.161 199.178,140.330 199.152,138.079 193.500 C 136.256 188.921,139.678 184.348,148.984 178.926 C 155.006 175.417,153.962 136.131,147.737 132.000 C 136.449 124.508,135.335 122.979,137.804 118.366 C 140.501 113.327,147.179 112.750,152.882 117.064 C 158.715 121.475,163.031 120.680,173.495 113.265 C 178.723 109.561,185.700 105.666,189.000 104.609 C 194.308 102.910,195.073 101.674,195.638 93.884 C 196.619 80.334,208.405 73.094,210.913 84.500 M191.188 128.533 C 162.948 144.681,172.452 186.000,204.407 186.000 C 231.965 186.000,245.270 149.819,224.092 132.467 C 213.263 123.594,202.149 122.265,191.188 128.533 M216.901 137.119 C 224.526 142.115,228.643 154.609,225.281 162.553 C 215.489 185.688,182.000 180.399,182.000 155.718 C 182.000 139.192,202.992 128.005,216.901 137.119 " stroke="none" fill="#FFF" fill-rule="evenodd"></path></g></svg>